<?xml version="1.0" encoding="iso-8859-1"?>

<!DOCTYPE svg PUBLIC "-//W3C//DTD SVG 1.1//EN" "http://www.w3.org/Graphics/SVG/1.1/DTD/svg11.dtd">
<!-- Uploaded to: SVG Repo, www.svgrepo.com, Generator: SVG Repo Mixer Tools -->
<svg height="800px" width="800px" version="1.1" id="_x36_" xmlns="http://www.w3.org/2000/svg" xmlns:xlink="http://www.w3.org/1999/xlink" 
	 viewBox="0 0 512 512"  xml:space="preserve">
<g>
	<g>
		<polygon style="fill:#E8E5B6;" points="492.176,184.586 490.633,213.753 477.228,464.553 34.772,464.553 22.748,239.751 
			21.367,213.753 19.824,184.586 		"/>
		<polygon style="fill:#7B9953;" points="495.182,464.553 493.477,493.882 18.523,493.882 17.305,473.003 16.817,464.553 		"/>
		<g>
			<g>
				<polygon style="fill:#90BDA2;" points="126.019,339.279 63.431,339.279 61.071,287.036 124.426,287.036 				"/>
				<polygon style="fill:#90BDA2;" points="127.904,401.109 66.225,401.109 63.933,350.381 126.357,350.381 				"/>
			</g>
			<g>
				<polygon style="fill:#90BDA2;" points="204.56,339.279 141.973,339.279 140.575,287.036 203.929,287.036 				"/>
				<polygon style="fill:#90BDA2;" points="205.306,401.109 143.627,401.109 142.27,350.381 204.694,350.381 				"/>
			</g>
			<g>
				<polygon style="fill:#90BDA2;" points="283.101,339.279 220.514,339.279 220.079,287.036 283.433,287.036 				"/>
				<polygon style="fill:#90BDA2;" points="282.708,401.109 221.028,401.109 220.606,350.381 283.03,350.381 				"/>
			</g>
		</g>
		<path style="fill:#A09255;" d="M392.544,245.69H380.65c-29.252,0-53.6,25.233-54.099,55.678l-2.692,164.089h112.298l7.147-164.089
			C444.631,270.922,421.796,245.69,392.544,245.69z"/>
		<polygon style="fill:#E0E0E0;" points="434.314,493.886 322.744,493.886 323.221,464.53 435.589,464.53 		"/>
		<polygon style="fill:#7B9953;" points="512,213.753 0,213.753 67.595,84.574 444.405,84.574 463.822,121.703 		"/>
		<g>
			<polygon style="fill:#E8E5B6;" points="251.613,174.756 104.642,174.756 104.074,158.426 101.555,84.574 100.255,46.715 
				175.081,0 229.352,33.147 251.531,46.715 251.531,84.574 			"/>
			<g>
				<polygon style="fill:#90BDA2;" points="157.973,141.819 132.026,141.819 130.436,84.592 156.715,84.592 				"/>
				<polygon style="fill:#90BDA2;" points="190.534,141.819 164.587,141.819 163.414,84.592 189.694,84.592 				"/>
				<polygon style="fill:#90BDA2;" points="223.095,141.819 197.148,141.819 196.393,84.592 222.673,84.592 				"/>
			</g>
		</g>
		<path style="fill:#E8E5B6;" d="M427.249,358.216c-0.327,8.109-6.945,14.66-14.783,14.66c-7.837,0-13.97-6.551-13.697-14.66
			c0.274-8.14,6.894-14.762,14.786-14.762S427.577,350.077,427.249,358.216z"/>
	</g>
	<polygon style="opacity:0.1;fill:#040000;" points="490.633,213.753 512,213.753 463.822,121.703 444.405,84.574 256,84.574 
		256,493.882 322.744,493.882 322.744,493.885 434.314,493.885 434.314,493.882 493.477,493.882 495.182,464.553 477.228,464.553 	
		"/>
</g>
</svg>